# File created by Blade
# Date/Time:  Tue Jan 27 20:12:12 2015
#---------------------------------------------------------
:version 1.10
:name HOM
:units
  mass 1.0
  length 1.000000
  angle deg
:documentation
     Acclaim Skeleton File
:root
   axis xyz
   order TX TY TZ RX RY RZ
   position 0.000000 0.000000 0.000000
   orientation 0 0 0
:bonedata
   begin
      id 1
      name Spine_dum
      direction 0.000000 1.000000 0.000000
      length 6.116652
      axis 0.0 0.0 0.0 xyz
   end
   begin
      id 2
      name LeftUpLeg_dum
      direction 1.000000 0.000000 0.000000
      length 4.711765
      axis 0.0 0.0 0.0 xyz
   end
   begin
      id 3
      name RightUpLeg_dum
      direction -1.000000 0.000000 0.000000
      length 4.711765
      axis 0.0 0.0 0.0 xyz
   end
   begin
      id 4
      name Spine
      direction 0.000000 1.000000 0.000000
      length 0.000000
      axis 0.0 0.0 0.0 xyz
      dof rx ry rz
   end
   begin
      id 5
      name Spine_dum1
      direction 0.000000 1.000000 0.000000
      length 15.225563
      axis 0.0 0.0 0.0 xyz
   end
   begin
      id 6
      name Spine_dum2
      direction 0.000000 1.000000 0.000000
      length 8.977654
      axis 0.0 0.0 0.0 xyz
   end
   begin
      id 7
      name Spine_dum3
      direction 0.000000 1.000000 0.000000
      length 8.977654
      axis 0.0 0.0 0.0 xyz
   end
   begin
      id 8
      name Head
      direction 0.000000 1.000000 0.000000
      length 4.527550
      axis 0.0 0.0 0.0 xyz
      dof rx ry rz
   end
   begin
      id 9
      name LeftShoulder
      direction 1.000000 0.000000 0.000000
      length 7.110130
      axis 0.0 0.0 -90.0 xyz
      dof rx ry rz
   end
   begin
      id 10
      name LeftArm
      direction 1.000000 0.000000 0.000000
      length 10.398341
      axis 0.0 0.0 -90.0 xyz
      dof rx ry rz
   end
   begin
      id 11
      name LeftForeArm
      direction 1.000000 0.000000 0.000000
      length 8.888997
      axis 0.0 0.0 -90.0 xyz
      dof ry rz rx
   end
   begin
      id 12
      name LeftHand
      direction 0.000000 0.000000 0.000000
      length 0.000000
      axis 0.0 0.0 -90.0 xyz
      dof rx ry rz
   end
   begin
      id 13
      name LeftHand_dum1
      direction 0.000000 0.000000 0.000000
      length 0.000000
      axis 0.0 0.0 -90.0 xyz
   end
   begin
      id 14
      name LeftHand_dum2
      direction 1.000000 0.000000 0.000000
      length 3.937000
      axis 0.0 0.0 -90.0 xyz
   end
   begin
      id 15
      name LeftHandThumb1
      direction 0.000000 0.000000 1.000000
      length 3.937000
      axis 0.0 0.0 -90.0 xyz
      dof rx rz ry
   end
   begin
      id 16
      name RightShoulder
      direction -1.000000 0.000000 0.000000
      length 7.110130
      axis 0.0 0.0 90.0 xyz
      dof rx ry rz
   end
   begin
      id 17
      name RightArm
      direction -1.000000 0.000000 0.000000
      length 10.398341
      axis 0.0 0.0 90.0 xyz
      dof rx ry rz
   end
   begin
      id 18
      name RightForeArm
      direction -1.000000 0.000000 0.000000
      length 8.888997
      axis 0.0 0.0 90.0 xyz
      dof ry rz rx
   end
   begin
      id 19
      name RightHand
      direction 0.000000 0.000000 0.000000
      length 0.000000
      axis 0.0 0.0 90.0 xyz
      dof rx ry rz
   end
   begin
      id 20
      name RightHand_dum1
      direction 0.000000 0.000000 0.000000
      length 0.000000
      axis 0.0 0.0 90.0 xyz
   end
   begin
      id 21
      name RightHand_dum2
      direction -1.000000 0.000000 0.000000
      length 3.937000
      axis 0.0 0.0 90.0 xyz
   end
   begin
      id 22
      name RightHandThumb1
      direction 0.000000 0.000000 1.000000
      length 3.937000
      axis 0.0 0.0 90.0 xyz
      dof rx rz ry
   end
   begin
      id 23
      name LeftUpLeg
      direction 0.000000 -1.000000 0.000000
      length 15.510451
      axis 0.0 0.0 0.0 xyz
      dof rx ry rz
   end
   begin
      id 24
      name LeftLeg
      direction 0.000000 -1.000000 0.000000
      length 14.858061
      axis 0.0 0.0 0.0 xyz
      dof rx ry rz
   end
   begin
      id 25
      name LeftFoot
      direction 0.000000 -0.258819 0.965926
      length 5.128852
      axis 15.0 0.0 0.0 xyz
      dof rx ry rz
   end
   begin
      id 26
      name LeftToeBase
      direction 0.000000 0.000000 1.000000
      length 2.952750
      axis 0.0 0.0 0.0 xyz
      dof rx ry rz
   end
   begin
      id 27
      name RightUpLeg
      direction 0.000000 -1.000000 0.000000
      length 15.510451
      axis 0.0 0.0 0.0 xyz
      dof rx ry rz
   end
   begin
      id 28
      name RightLeg
      direction 0.000000 -1.000000 0.000000
      length 14.858061
      axis 0.0 0.0 0.0 xyz
      dof rx ry rz
   end
   begin
      id 29
      name RightFoot
      direction 0.000000 -0.258819 0.965926
      length 5.128852
      axis 15.0 0.0 0.0 xyz
      dof rx ry rz
   end
   begin
      id 30
      name RightToeBase
      direction 0.000000 0.000000 1.000000
      length 2.952750
      axis 0.0 0.0 0.0 xyz
      dof rx ry rz
   end
:hierarchy
   begin
      root Spine_dum LeftUpLeg_dum RightUpLeg_dum
      Spine_dum Spine
      LeftUpLeg_dum LeftUpLeg
      RightUpLeg_dum RightUpLeg
      Spine Spine_dum1 Spine_dum2 Spine_dum3
      Spine_dum1 Head
      Spine_dum2 LeftShoulder
      Spine_dum3 RightShoulder
      LeftShoulder LeftArm
      LeftArm LeftForeArm
      LeftForeArm LeftHand
      LeftHand LeftHand_dum1 LeftHand_dum2
      LeftHand_dum1 LeftHandThumb1
      RightShoulder RightArm
      RightArm RightForeArm
      RightForeArm RightHand
      RightHand RightHand_dum1 RightHand_dum2
      RightHand_dum1 RightHandThumb1
      LeftUpLeg LeftLeg
      LeftLeg LeftFoot
      LeftFoot LeftToeBase
      RightUpLeg RightLeg
      RightLeg RightFoot
      RightFoot RightToeBase
   end

# File created by Blade
# Date/Time:  Tue Jan 27 20:12:02 2015
# Frame Rate: 120.000 fps
#------------------------------------------------------
:FULLY-SPECIFIED
:DEGREES
785
root 8.345764 32.122748 -3.340242 3.569239 19.957350 2.624609
Spine 1.835693 4.022448 -7.005085
Head 17.822044 -9.248943 0.976995
LeftShoulder -16.431832 -1.964562 27.912118
LeftArm -9.183141 -32.453850 -69.183183
LeftForeArm -5.476556 -0.000000 96.335269
LeftHand 17.544628 -0.000000 15.172444
LeftHandThumb1 -26.253704 0.000000 33.147579
RightShoulder -21.978204 -25.449183 -23.601168
RightArm 7.503202 -32.730357 88.529540
RightForeArm -24.313058 -0.000000 103.683002
RightHand 17.507509 -0.000000 0.544209
RightHandThumb1 -24.326973 -0.000000 -32.862282
LeftUpLeg 3.942757 -11.091640 -9.219874
LeftLeg -3.782103 -0.000000 0.000000
LeftFoot -9.185177 6.256171 -13.241578
LeftToeBase 22.298168 -0.000000 -0.000000
RightUpLeg -4.909093 -49.460634 1.916772
RightLeg 77.618745 -0.000000 -0.000000
RightFoot 22.212934 -12.292610 58.765362
RightToeBase 22.993031 -0.000000 -0.000000
786
root 8.339144 32.124636 -3.344109 3.581620 20.044032 2.629615
Spine 1.855623 4.081859 -7.033895
Head 17.777156 -9.355084 1.055049
LeftShoulder -16.416366 -2.041027 27.921126
LeftArm -9.122594 -32.389607 -69.174098
LeftForeArm -5.466954 -0.000000 96.313332
LeftHand 17.438915 -0.000000 15.121340
LeftHandThumb1 -26.253704 0.000000 33.147579
RightShoulder -21.964038 -25.440170 -23.582843
RightArm 7.543937 -32.776185 88.555382
RightForeArm -24.340072 0.000000 103.684214
RightHand 17.571411 0.000000 0.630799
RightHandThumb1 -24.326973 -0.000000 -32.862282
LeftUpLeg 3.906388 -11.129633 -9.196684
LeftLeg -3.766646 -0.000000 0.000000
LeftFoot -9.188866 6.193527 -13.363752
LeftToeBase 22.642120 -0.000000 -0.000000
RightUpLeg -4.975690 -49.349025 1.949378
RightLeg 77.698171 -0.000000 -0.000000
RightFoot 22.128308 -12.214574 58.588767
RightToeBase 23.437522 -0.000000 -0.000000
787
root 8.330939 32.127670 -3.347655 3.583683 20.115495 2.607348
Spine 1.874604 4.149144 -7.039315
Head 17.732365 -9.449908 1.139171
LeftShoulder -16.415861 -2.034048 27.945307
LeftArm -8.998237 -32.277417 -69.253736
LeftForeArm -5.588832 -0.000000 96.283196
LeftHand 17.550227 0.000000 15.327429
LeftHandThumb1 -26.253704 0.000000 33.147579
RightShoulder -21.945011 -25.453368 -23.558531
RightArm 7.611143 -32.812257 88.581670
RightForeArm -24.430103 0.000000 103.670899
RightHand 17.530439 -0.000000 0.600582
RightHandThumb1 -24.326973 -0.000000 -32.862282
LeftUpLeg 3.876744 -11.182981 -9.149277
LeftLeg -3.740429 -0.000000 0.000000
LeftFoot -9.133988 6.113887 -13.300365
LeftToeBase 22.370025 -0.000000 -0.000000
RightUpLeg -5.045988 -49.166019 2.024441
RightLeg 77.748418 -0.000000 -0.000000
RightFoot 22.047708 -12.245607 58.705367
RightToeBase 22.618410 -0.000000 -0.000000
788
root 8.320780 32.132092 -3.352175 3.588690 20.163170 2.564999
Spine 1.881490 4.212827 -7.029121
Head 17.685232 -9.560790 1.218067
LeftShoulder -16.420575 -2.080344 27.940022
LeftArm -8.906902 -32.268588 -69.284158
LeftForeArm -5.616853 -0.000000 96.282207
LeftHand 17.532721 -0.000000 15.202635
LeftHandThumb1 -26.253704 0.000000 33.147579
RightShoulder -21.880478 -25.386322 -23.581403
RightArm 7.579813 -32.871522 88.663863
RightForeArm -24.443237 0.000000 103.656534
RightHand 17.503654 -0.000000 0.476581
RightHandThumb1 -24.326973 -0.000000 -32.862282
LeftUpLeg 3.844217 -11.234415 -9.083899
LeftLeg -3.744388 -0.000000 0.000000
LeftFoot -9.117369 6.106975 -13.296197
LeftToeBase 22.327928 -0.000000 -0.000000
RightUpLeg -5.184289 -48.850522 2.193717
RightLeg 77.804652 -0.000000 -0.000000
RightFoot 21.954419 -12.235212 58.818935
RightToeBase 23.125409 -0.000000 -0.000000
789
root 8.309683 32.137715 -3.355553 3.570248 20.222126 2.511126
Spine 1.920734 4.284647 -7.020607
Head 17.603612 -9.698930 1.339916
LeftShoulder -16.401626 -2.132449 27.955190
LeftArm -8.822626 -32.247292 -69.338631
LeftForeArm -5.560008 0.000000 96.289309
LeftHand 17.564777 -0.000000 15.179616
LeftHandThumb1 -26.253704 0.000000 33.147579
RightShoulder -21.862536 -25.336625 -23.554872
RightArm 7.597385 -32.955159 88.681540
RightForeArm -24.411808 0.000000 103.650205
RightHand 17.425362 -0.000000 0.381492
RightHandThumb1 -24.326973 -0.000000 -32.862282
LeftUpLeg 3.823748 -11.260570 -9.007837
LeftLeg -3.740515 -0.000000 0.000000
LeftFoot -9.141022 6.100038 -13.361858
LeftToeBase 22.608595 -0.000000 -0.000000
RightUpLeg -5.291358 -48.492235 2.359786
RightLeg 77.822780 -0.000000 -0.000000
RightFoot 21.871314 -12.215357 58.746501
RightToeBase 25.116552 -0.000000 -0.000000
790
root 8.299403 32.144441 -3.360716 3.572378 20.268228 2.454832
Spine 1.939518 4.395655 -7.021781
Head 17.500023 -9.915394 1.494597
LeftShoulder -16.373655 -2.176362 27.979649
LeftArm -8.719764 -32.202375 -69.423307
LeftForeArm -5.551834 0.000000 96.323885
LeftHand 17.521782 -0.000000 15.139276
LeftHandThumb1 -26.253704 0.000000 33.147579
RightShoulder -21.904442 -25.307231 -23.473868
RightArm 7.663632 -33.043138 88.637806
RightForeArm -24.380618 -0.000000 103.631724
RightHand 17.401534 -0.000000 0.372279
RightHandThumb1 -24.326973 -0.000000 -32.862282
LeftUpLeg 3.781307 -11.334936 -8.934722
LeftLeg -3.721928 -0.000000 0.000000
LeftFoot -9.098692 6.110715 -13.225637
LeftToeBase 22.474283 -0.000000 -0.000000
RightUpLeg -5.485542 -48.011332 2.567251
RightLeg 77.951243 -0.000000 -0.000000
RightFoot 21.857169 -11.997234 58.694454
RightToeBase 23.328008 -0.000000 -0.000000
791
root 8.289807 32.150453 -3.366810 3.563940 20.305699 2.403808
Spine 1.954244 4.448676 -7.016303
Head 17.431899 -10.085326 1.603601
LeftShoulder -16.371361 -2.165492 27.996462
LeftArm -8.601428 -32.177972 -69.524400
LeftForeArm -5.516621 -0.000000 96.358327
LeftHand 17.420557 -0.000000 15.171893
LeftHandThumb1 -26.253704 0.000000 33.147579
RightShoulder -21.855972 -25.297189 -23.452900
RightArm 7.759853 -33.114788 88.608883
RightForeArm -24.387078 -0.000000 103.612636
RightHand 17.472409 0.000000 0.458099
RightHandThumb1 -24.326973 -0.000000 -32.862282
LeftUpLeg 3.736839 -11.373226 -8.868091
LeftLeg -3.695080 -0.000000 0.000000
LeftFoot -9.124790 6.115866 -13.354409
LeftToeBase 22.708103 -0.000000 -0.000000
RightUpLeg -5.631278 -47.455986 2.729194
RightLeg 78.055331 -0.000000 -0.000000
RightFoot 21.664628 -12.065010 58.962786
RightToeBase 25.039544 -0.000000 -0.000000
792
root 8.283153 32.156170 -3.374348 3.567984 20.331509 2.386447
Spine 1.971381 4.511787 -7.045498
Head 17.322115 -10.330606 1.701473
LeftShoulder -16.348262 -2.186678 28.023548
LeftArm -8.535608 -32.144091 -69.594089
LeftForeArm -5.498738 -0.000000 96.385625
LeftHand 17.377513 -0.000000 15.178758
LeftHandThumb1 -26.253704 0.000000 33.147579
RightShoulder -21.827026 -25.281356 -23.441513
RightArm 7.851464 -33.240073 88.582381
RightForeArm -24.356541 -0.000000 103.603936
RightHand 17.491819 0.000000 0.558111
RightHandThumb1 -24.326973 -0.000000 -32.862282
LeftUpLeg 3.737502 -11.673947 -8.852126
LeftLeg -3.748055 -0.000000 0.000000
LeftFoot -9.115851 6.390541 -13.419437
LeftToeBase 22.694517 -0.000000 -0.000000
RightUpLeg -5.826348 -46.820917 2.841639
RightLeg 78.286372 -0.000000 -0.000000
RightFoot 21.340180 -11.847255 58.951992
RightToeBase 25.144974 -0.000000 -0.000000
793
root 8.274273 32.162338 -3.381050 3.560162 20.374963 2.347459
Spine 1.997617 4.553113 -7.053105
Head 17.201511 -10.606425 1.804985
LeftShoulder -16.320206 -2.225976 28.054292
LeftArm -8.492779 -32.110790 -69.644339
LeftForeArm -5.509792 -0.000000 96.395453
LeftHand 17.448284 0.000000 15.168244
LeftHandThumb1 -26.253704 0.000000 33.147579
RightShoulder -21.795034 -25.250393 -23.434671
RightArm 7.899627 -33.361371 88.586677
RightForeArm -24.413501 -0.000000 103.615361
RightHand 17.486502 -0.000000 0.733546
RightHandThumb1 -24.326973 -0.000000 -32.862282
LeftUpLeg 3.694420 -11.794077 -8.803365
LeftLeg -3.709870 -0.000000 0.000000
LeftFoot -9.117532 6.466915 -13.419087
LeftToeBase 22.737295 -0.000000 -0.000000
RightUpLeg -6.028867 -46.044097 3.023721
RightLeg 78.476969 -0.000000 -0.000000
RightFoot 21.287484 -11.766019 58.935947
RightToeBase 24.650839 -0.000000 -0.000000
